<svg width="1406" height="1022" viewBox="0 0 1406 1022" fill="none" xmlns="http://www.w3.org/2000/svg">
<path d="M169 301.761L1237 0L1223.99 791H169V301.761Z" fill="#242424"/>
<path fill-rule="evenodd" clip-rule="evenodd" d="M661 612L218 685.5V742.166H661V612Z" fill="#D9D9D9"/>
<path d="M661 570L218 646.51V685.5L661 612V570Z" fill="#C4C4C4"/>
<path fill-rule="evenodd" clip-rule="evenodd" d="M1053.5 627.5V734.666L661 742.166V612L889.5 601.5L1053.5 627.5Z" fill="#F4EACB"/>
<path d="M661 570V612L889.5 601.5L661 570Z" fill="#DFD5B8"/>
<path d="M860 416.938L1053 452.497V435.5L868 377.5L860 416.938Z" fill="#E8DEBE"/>
<path fill-rule="evenodd" clip-rule="evenodd" d="M1053 435.5V356L860 268L754.5 216V397.5L792 404.409L868 377.5L1053 435.5Z" fill="#F4EACB"/>
<path d="M792 404.409L860 416.938L868 377.5L792 404.409Z" fill="#E8DEBE"/>
<path d="M275 377.5V452.497L754.5 397.5V216L275 377.5Z" fill="url(#paint0_linear_864_2)"/>
<path d="M1189.5 600V483.834L891 396.334V551.334L1189.5 600Z" fill="#F4EACB"/>
<path d="M357 582.834L891 551.334V396.334L755.5 424.834L556.25 488.084L357 551.334V582.834Z" fill="#D9D9D9"/>
<path d="M357 499.334V551.334L556.25 488.084L755.5 424.834L357 499.334Z" fill="#B0B0B0" fill-opacity="0.76"/>
<path d="M149.274 1020V980.484C147.3 980.484 145.475 980.287 143.798 979.892L121.154 1020H91.8496V1015.86L119.674 970.272C115.924 967.904 112.767 965.191 110.202 962.132C107.636 959.073 105.663 956.163 104.282 953.4C102.999 950.539 102.012 947.036 101.322 942.892C100.631 938.748 100.187 935.245 99.9896 932.384C99.8909 929.424 99.8416 925.527 99.8416 920.692V916.4H126.926V922.024C126.926 926.069 127.024 929.375 127.222 931.94C127.419 934.505 127.912 937.416 128.702 940.672C129.491 943.829 130.626 946.345 132.106 948.22C133.684 949.996 135.904 951.624 138.766 953.104C141.627 954.485 145.13 955.275 149.274 955.472V916.4H176.358V955.472C180.502 955.275 184.004 954.485 186.866 953.104C189.727 951.624 191.898 949.996 193.378 948.22C194.956 946.345 196.14 943.829 196.93 940.672C197.719 937.416 198.212 934.505 198.41 931.94C198.607 929.375 198.706 926.069 198.706 922.024V916.4H225.79V920.692C225.79 925.527 225.691 929.424 225.494 932.384C225.395 935.245 225 938.748 224.31 942.892C223.619 947.036 222.583 950.539 221.202 953.4C219.919 956.163 217.995 959.073 215.43 962.132C212.864 965.191 209.707 967.904 205.958 970.272L233.782 1015.86V1020H204.478L181.834 979.892C180.156 980.287 178.331 980.484 176.358 980.484V1020H149.274ZM302.895 916.4V940.08H265.155V954.732H299.787V978.264H265.155V996.468H304.227V1020H238.219V916.4H302.895ZM361.799 960.504L335.455 1020H307.779V1016.15L352.919 916.4H370.827L416.115 1016.15V1020H388.439L361.799 960.504ZM486.739 916.4V940.08H448.999V954.732H483.631V978.264H448.999V996.468H488.071V1020H422.063V916.4H486.739ZM520.37 943.632H496.394C496.492 935.541 499.748 928.684 506.162 923.06C512.575 917.436 520.666 914.624 530.434 914.624C540.596 914.624 548.687 917.633 554.706 923.652C560.823 929.671 563.882 936.676 563.882 944.668C563.882 952.956 560.872 959.369 554.854 963.908C564.819 968.249 569.802 976.192 569.802 987.736C569.802 997.603 566.398 1005.74 559.59 1012.16C552.782 1018.57 543.063 1021.78 530.434 1021.78C518.298 1021.78 508.826 1018.72 502.018 1012.6C495.308 1006.48 491.954 997.652 491.954 986.108H517.114C517.114 990.252 518.248 993.508 520.518 995.876C522.787 998.244 525.994 999.428 530.138 999.428C533.986 999.428 536.995 998.293 539.166 996.024C541.435 993.656 542.57 990.893 542.57 987.736C542.57 984.48 541.435 981.717 539.166 979.448C536.896 977.08 533.69 975.896 529.546 975.896H522.294V954.584H529.25C532.407 954.584 534.775 953.795 536.354 952.216C538.031 950.539 538.87 948.368 538.87 945.704C538.87 943.237 538.08 941.116 536.502 939.34C535.022 937.465 532.851 936.528 529.99 936.528C524.958 936.528 521.751 938.896 520.37 943.632ZM652.794 968.052C652.794 959.271 650.229 952.413 645.098 947.48C639.967 942.547 633.899 940.08 626.894 940.08C619.79 940.08 613.673 942.547 608.542 947.48C603.411 952.413 600.846 959.271 600.846 968.052C600.846 976.932 603.411 983.888 608.542 988.92C613.673 993.853 619.741 996.32 626.746 996.32C633.751 996.32 639.819 993.853 644.95 988.92C650.179 983.888 652.794 976.932 652.794 968.052ZM573.318 968.052C573.318 956.705 575.982 946.888 581.31 938.6C586.638 930.312 593.249 924.244 601.142 920.396C609.134 916.548 617.669 914.624 626.746 914.624C633.554 914.624 640.115 915.759 646.43 918.028C652.745 920.297 658.418 923.603 663.45 927.944C668.581 932.285 672.675 937.909 675.734 944.816C678.793 951.723 680.322 959.468 680.322 968.052C680.322 976.833 678.793 984.727 675.734 991.732C672.774 998.639 668.729 1004.26 663.598 1008.6C658.467 1012.85 652.745 1016.1 646.43 1018.37C640.214 1020.64 633.653 1021.78 626.746 1021.78C621.418 1021.78 616.189 1021.09 611.058 1019.7C606.026 1018.32 601.191 1016.2 596.554 1013.34C592.015 1010.38 588.019 1006.83 584.566 1002.68C581.113 998.54 578.35 993.508 576.278 987.588C574.305 981.569 573.318 975.057 573.318 968.052ZM731.85 976.044H713.202V996.32H731.702C735.156 996.32 737.82 995.383 739.694 993.508C741.668 991.633 742.654 989.167 742.654 986.108C742.654 982.951 741.668 980.484 739.694 978.708C737.82 976.932 735.205 976.044 731.85 976.044ZM686.266 1020V916.4H761.154V940.08H713.202V952.364H734.218C745.466 952.364 754.248 955.373 760.562 961.392C766.877 967.411 770.034 975.551 770.034 985.812C770.034 995.975 766.778 1004.21 760.266 1010.53C753.853 1016.84 745.072 1020 733.922 1020H686.266ZM841.563 916.4V940.08H803.823V954.732H838.455V978.264H803.823V996.468H842.895V1020H776.887V916.4H841.563ZM871.642 940.08H846.186V916.4H923.886V940.08H898.578V1020H871.642V940.08ZM1003.14 968.052C1003.14 959.271 1000.57 952.413 995.442 947.48C990.311 942.547 984.243 940.08 977.238 940.08C970.134 940.08 964.016 942.547 958.886 947.48C953.755 952.413 951.19 959.271 951.19 968.052C951.19 976.932 953.755 983.888 958.886 988.92C964.016 993.853 970.084 996.32 977.09 996.32C984.095 996.32 990.163 993.853 995.294 988.92C1000.52 983.888 1003.14 976.932 1003.14 968.052ZM923.662 968.052C923.662 956.705 926.326 946.888 931.654 938.6C936.982 930.312 943.592 924.244 951.486 920.396C959.478 916.548 968.012 914.624 977.09 914.624C983.898 914.624 990.459 915.759 996.774 918.028C1003.09 920.297 1008.76 923.603 1013.79 927.944C1018.92 932.285 1023.02 937.909 1026.08 944.816C1029.14 951.723 1030.67 959.468 1030.67 968.052C1030.67 976.833 1029.14 984.727 1026.08 991.732C1023.12 998.639 1019.07 1004.26 1013.94 1008.6C1008.81 1012.85 1003.09 1016.1 996.774 1018.37C990.558 1020.64 983.996 1021.78 977.09 1021.78C971.762 1021.78 966.532 1021.09 961.402 1019.7C956.37 1018.32 951.535 1016.2 946.898 1013.34C942.359 1010.38 938.363 1006.83 934.91 1002.68C931.456 998.54 928.694 993.508 926.622 987.588C924.648 981.569 923.662 975.057 923.662 968.052ZM1123.04 916.4V1020H1095.96V978.412H1063.99V1020H1036.91V916.4H1063.99V953.992H1095.96V916.4H1123.04ZM1200.79 997.948C1204.44 997.948 1207.3 996.813 1209.37 994.544C1211.45 992.275 1212.48 989.413 1212.48 985.96C1212.48 982.605 1211.5 979.793 1209.52 977.524C1207.55 975.255 1204.64 974.12 1200.79 974.12C1196.94 974.12 1193.93 975.255 1191.76 977.524C1189.69 979.793 1188.65 982.605 1188.65 985.96C1188.65 989.413 1189.79 992.275 1192.06 994.544C1194.33 996.813 1197.24 997.948 1200.79 997.948ZM1195.76 916.4H1225.21L1204.64 951.476C1215.29 951.476 1223.88 954.633 1230.39 960.948C1237 967.263 1240.31 975.6 1240.31 985.96C1240.31 996.715 1236.66 1005.4 1229.35 1012.01C1222.15 1018.52 1212.63 1021.78 1200.79 1021.78C1189.05 1021.78 1179.48 1018.52 1172.08 1012.01C1164.68 1005.5 1160.98 996.813 1160.98 985.96C1160.98 981.421 1161.62 977.179 1162.9 973.232C1164.19 969.285 1166.45 964.648 1169.71 959.32L1195.76 916.4ZM1239.89 1015.56L1278.81 959.024C1281.58 954.88 1282.96 950.933 1282.96 947.184C1282.96 944.717 1282.22 942.695 1280.74 941.116C1279.26 939.439 1277.28 938.6 1274.82 938.6C1272.05 938.6 1269.83 939.537 1268.16 941.412C1266.58 943.188 1265.79 945.359 1265.79 947.924H1241.22C1241.22 937.465 1244.33 929.325 1250.55 923.504C1256.86 917.584 1265.25 914.624 1275.71 914.624C1286.46 914.624 1294.9 917.732 1301.01 923.948C1307.23 930.065 1310.34 937.761 1310.34 947.036C1310.34 953.745 1307.92 960.504 1303.09 967.312L1282.22 996.468H1312.71V1020H1239.89V1015.56Z" fill="#323232"/>
<defs>
<linearGradient id="paint0_linear_864_2" x1="275" y1="334.249" x2="1053" y2="334.249" gradientUnits="userSpaceOnUse">
<stop offset="0.59" stop-color="#D9D9D9"/>
<stop offset="0.89" stop-color="#8E8E8E"/>
</linearGradient>
</defs>
</svg>
