<svg width="1024" height="1024" viewBox="0 0 1024 1024" fill="none" xmlns="http://www.w3.org/2000/svg">
<path d="M375.791 850.924H362.183V865.72H375.683C378.203 865.72 380.147 865.036 381.515 863.668C382.955 862.3 383.675 860.5 383.675 858.268C383.675 855.964 382.955 854.164 381.515 852.868C380.147 851.572 378.239 850.924 375.791 850.924ZM342.527 883V807.4H397.175V824.68H362.183V833.644H377.519C385.727 833.644 392.135 835.84 396.743 840.232C401.351 844.624 403.655 850.564 403.655 858.052C403.655 865.468 401.279 871.48 396.527 876.088C391.847 880.696 385.439 883 377.303 883H342.527ZM455.852 807.4V824.68H428.312V835.372H453.584V852.544H428.312V865.828H456.824V883H408.656V807.4H455.852ZM477.801 824.68H459.225V807.4H515.925V824.68H497.457V883H477.801V824.68ZM573.758 845.092C573.758 838.684 571.886 833.68 568.142 830.08C564.398 826.48 559.97 824.68 554.858 824.68C549.674 824.68 545.21 826.48 541.466 830.08C537.722 833.68 535.85 838.684 535.85 845.092C535.85 851.572 537.722 856.648 541.466 860.32C545.21 863.92 549.638 865.72 554.75 865.72C559.862 865.72 564.29 863.92 568.034 860.32C571.85 856.648 573.758 851.572 573.758 845.092ZM515.762 845.092C515.762 836.812 517.706 829.648 521.594 823.6C525.482 817.552 530.306 813.124 536.066 810.316C541.898 807.508 548.126 806.104 554.75 806.104C559.718 806.104 564.506 806.932 569.114 808.588C573.722 810.244 577.862 812.656 581.534 815.824C585.278 818.992 588.266 823.096 590.498 828.136C592.73 833.176 593.846 838.828 593.846 845.092C593.846 851.5 592.73 857.26 590.498 862.372C588.338 867.412 585.386 871.516 581.642 874.684C577.898 877.78 573.722 880.156 569.114 881.812C564.578 883.468 559.79 884.296 554.75 884.296C550.862 884.296 547.046 883.792 543.302 882.784C539.63 881.776 536.102 880.228 532.718 878.14C529.406 875.98 526.49 873.388 523.97 870.364C521.45 867.34 519.434 863.668 517.922 859.348C516.482 854.956 515.762 850.204 515.762 845.092ZM661.255 807.4V883H641.491V852.652H618.163V883H598.399V807.4H618.163V834.832H641.491V807.4H661.255ZM717.991 866.908C720.655 866.908 722.743 866.08 724.255 864.424C725.767 862.768 726.523 860.68 726.523 858.16C726.523 855.712 725.803 853.66 724.363 852.004C722.923 850.348 720.799 849.52 717.991 849.52C715.183 849.52 712.987 850.348 711.403 852.004C709.891 853.66 709.135 855.712 709.135 858.16C709.135 860.68 709.963 862.768 711.619 864.424C713.275 866.08 715.399 866.908 717.991 866.908ZM714.319 807.4H735.811L720.799 832.996C728.575 832.996 734.839 835.3 739.591 839.908C744.415 844.516 746.827 850.6 746.827 858.16C746.827 866.008 744.163 872.344 738.835 877.168C733.579 881.92 726.631 884.296 717.991 884.296C709.423 884.296 702.439 881.92 697.039 877.168C691.639 872.416 688.939 866.08 688.939 858.16C688.939 854.848 689.407 851.752 690.343 848.872C691.279 845.992 692.935 842.608 695.311 838.72L714.319 807.4ZM746.522 879.76L774.926 838.504C776.942 835.48 777.95 832.6 777.95 829.864C777.95 828.064 777.41 826.588 776.33 825.436C775.25 824.212 773.81 823.6 772.01 823.6C769.994 823.6 768.374 824.284 767.15 825.652C765.998 826.948 765.422 828.532 765.422 830.404H747.494C747.494 822.772 749.762 816.832 754.298 812.584C758.906 808.264 765.026 806.104 772.658 806.104C780.506 806.104 786.662 808.372 791.126 812.908C795.662 817.372 797.93 822.988 797.93 829.756C797.93 834.652 796.166 839.584 792.638 844.552L777.41 865.828H799.658V883H746.522V879.76Z" fill="black"/>
<rect x="246" y="412.355" width="376.682" height="376.682" rx="188.341" transform="rotate(-45 246 412.355)" fill="url(#paint0_linear_836_55)"/>
<path d="M557 460V542.5L485.25 579.5L413.5 616.5L341 579.5L268.5 542.5L268 460L340.75 421.75L413.5 383.5L485.25 421.75L557 460Z" fill="white"/>
<path d="M268 460L268.5 542.5L341 579.5M268 460L340.75 497.25M268 460L340.75 421.75M557 460V542.5L485.25 579.5M557 460L485.25 421.75M557 460L485.25 497.25M413.5 534.5V616.5M413.5 534.5L340.75 497.25M413.5 534.5L485.25 497.25M413.5 616.5L341 579.5M413.5 616.5L485.25 579.5M341 579.5L340.75 497.25M340.75 497.25L485.25 421.75M485.25 421.75L413.5 383.5L340.75 421.75M485.25 497.25L340.75 421.75M485.25 497.25V579.5" stroke="black" stroke-width="19"/>
<path d="M557 309.5V392L485.25 429L413.5 466L341 429L268.5 392L268 309.5L340.75 271.25L413.5 233L485.25 271.25L557 309.5Z" fill="black"/>
<path d="M268 309.5L268.5 392L341 429M268 309.5L340.75 346.75M268 309.5L340.75 271.25M557 309.5V392L485.25 429M557 309.5L485.25 271.25M557 309.5L485.25 346.75M413.5 384V466M413.5 384L340.75 346.75M413.5 384L485.25 346.75M413.5 466L341 429M413.5 466L485.25 429M341 429L340.75 346.75M340.75 346.75L485.25 271.25M485.25 271.25L413.5 233L340.75 271.25M485.25 346.75L340.75 271.25M485.25 346.75V429" stroke="white" stroke-width="19"/>
<path d="M266.142 767V738.164C264.702 738.164 263.37 738.02 262.146 737.732L245.622 767H224.238V763.976L244.542 730.712C241.806 728.984 239.502 727.004 237.63 724.772C235.758 722.54 234.318 720.416 233.31 718.4C232.374 716.312 231.654 713.756 231.15 710.732C230.646 707.708 230.322 705.152 230.178 703.064C230.106 700.904 230.07 698.06 230.07 694.532V691.4H249.834V695.504C249.834 698.456 249.906 700.868 250.05 702.74C250.194 704.612 250.554 706.736 251.13 709.112C251.706 711.416 252.534 713.252 253.614 714.62C254.766 715.916 256.386 717.104 258.474 718.184C260.562 719.192 263.118 719.768 266.142 719.912V691.4H285.906V719.912C288.93 719.768 291.486 719.192 293.574 718.184C295.662 717.104 297.246 715.916 298.326 714.62C299.478 713.252 300.342 711.416 300.918 709.112C301.494 706.736 301.854 704.612 301.998 702.74C302.142 700.868 302.214 698.456 302.214 695.504V691.4H321.978V694.532C321.978 698.06 321.906 700.904 321.762 703.064C321.69 705.152 321.402 707.708 320.898 710.732C320.394 713.756 319.638 716.312 318.63 718.4C317.694 720.416 316.29 722.54 314.418 724.772C312.546 727.004 310.242 728.984 307.506 730.712L327.81 763.976V767H306.426L289.902 737.732C288.678 738.02 287.346 738.164 285.906 738.164V767H266.142ZM378.245 691.4V708.68H350.705V719.372H375.977V736.544H350.705V749.828H379.217V767H331.049V691.4H378.245ZM421.229 723.584L402.005 767H381.809V764.192L414.749 691.4H427.817L460.865 764.192V767H440.669L421.229 723.584ZM512.401 691.4V708.68H484.861V719.372H510.133V736.544H484.861V749.828H513.373V767H465.205V691.4H512.401ZM536.942 711.272H519.446C519.518 705.368 521.894 700.364 526.574 696.26C531.254 692.156 537.158 690.104 544.286 690.104C551.702 690.104 557.606 692.3 561.998 696.692C566.462 701.084 568.694 706.196 568.694 712.028C568.694 718.076 566.498 722.756 562.106 726.068C569.378 729.236 573.014 735.032 573.014 743.456C573.014 750.656 570.53 756.596 565.562 761.276C560.594 765.956 553.502 768.296 544.286 768.296C535.43 768.296 528.518 766.064 523.55 761.6C518.654 757.136 516.206 750.692 516.206 742.268H534.566C534.566 745.292 535.394 747.668 537.05 749.396C538.706 751.124 541.046 751.988 544.07 751.988C546.878 751.988 549.074 751.16 550.658 749.504C552.314 747.776 553.142 745.76 553.142 743.456C553.142 741.08 552.314 739.064 550.658 737.408C549.002 735.68 546.662 734.816 543.638 734.816H538.346V719.264H543.422C545.726 719.264 547.454 718.688 548.606 717.536C549.83 716.312 550.442 714.728 550.442 712.784C550.442 710.984 549.866 709.436 548.714 708.14C547.634 706.772 546.05 706.088 543.962 706.088C540.29 706.088 537.95 707.816 536.942 711.272ZM633.576 729.092C633.576 722.684 631.704 717.68 627.96 714.08C624.216 710.48 619.788 708.68 614.676 708.68C609.492 708.68 605.028 710.48 601.284 714.08C597.54 717.68 595.668 722.684 595.668 729.092C595.668 735.572 597.54 740.648 601.284 744.32C605.028 747.92 609.456 749.72 614.568 749.72C619.68 749.72 624.108 747.92 627.852 744.32C631.668 740.648 633.576 735.572 633.576 729.092ZM575.58 729.092C575.58 720.812 577.524 713.648 581.412 707.6C585.3 701.552 590.124 697.124 595.884 694.316C601.716 691.508 607.944 690.104 614.568 690.104C619.536 690.104 624.324 690.932 628.932 692.588C633.54 694.244 637.68 696.656 641.352 699.824C645.096 702.992 648.084 707.096 650.316 712.136C652.548 717.176 653.664 722.828 653.664 729.092C653.664 735.5 652.548 741.26 650.316 746.372C648.156 751.412 645.204 755.516 641.46 758.684C637.716 761.78 633.54 764.156 628.932 765.812C624.396 767.468 619.608 768.296 614.568 768.296C610.68 768.296 606.864 767.792 603.12 766.784C599.448 765.776 595.92 764.228 592.536 762.14C589.224 759.98 586.308 757.388 583.788 754.364C581.268 751.34 579.252 747.668 577.74 743.348C576.3 738.956 575.58 734.204 575.58 729.092Z" fill="black"/>
<defs>
<linearGradient id="paint0_linear_836_55" x1="434.341" y1="412.355" x2="434.341" y2="789.038" gradientUnits="userSpaceOnUse">
<stop stop-color="#C56969"/>
<stop offset="1" stop-color="#991818"/>
</linearGradient>
</defs>
</svg>
